<?xml version="1.0" encoding="UTF-8" standalone="no"?>
<svg
   height="1024"
   width="1024"
   version="1.1"
   id="svg8"
   sodipodi:docname="hub_icon.svg"
   inkscape:version="1.3.2 (091e20e, 2023-11-25, custom)"
   inkscape:export-filename="hub_icon_512x512.png"
   inkscape:export-xdpi="48"
   inkscape:export-ydpi="48"
   xmlns:inkscape="http://www.inkscape.org/namespaces/inkscape"
   xmlns:sodipodi="http://sodipodi.sourceforge.net/DTD/sodipodi-0.dtd"
   xmlns="http://www.w3.org/2000/svg"
   xmlns:svg="http://www.w3.org/2000/svg">
  <defs
     id="defs8" />
  <sodipodi:namedview
     id="namedview8"
     pagecolor="#505050"
     bordercolor="#ffffff"
     borderopacity="1"
     inkscape:showpageshadow="0"
     inkscape:pageopacity="0"
     inkscape:pagecheckerboard="1"
     inkscape:deskcolor="#505050"
     inkscape:zoom="0.80175781"
     inkscape:cx="443.40073"
     inkscape:cy="509.50548"
     inkscape:window-width="1920"
     inkscape:window-height="1017"
     inkscape:window-x="-8"
     inkscape:window-y="-8"
     inkscape:window-maximized="1"
     inkscape:current-layer="svg8" />
  <path
     sodipodi:type="star"
     style="fill:#478cbf;fill-opacity:1;fill-rule:evenodd;stroke:#ffffff;stroke-width:23.25870101;stroke-linejoin:round;stroke-dasharray:none"
     id="path9"
     inkscape:flatsided="true"
     sodipodi:sides="6"
     sodipodi:cx="513.87091"
     sodipodi:cy="518.85992"
     sodipodi:r1="585.72345"
     sodipodi:r2="507.25137"
     sodipodi:arg1="0.52654165"
     sodipodi:arg2="1.0501404"
     inkscape:rounded="0"
     inkscape:randomized="0"
     d="M 1020.2582,813.21316 512.1472,1104.5808 5.7598661,810.22761 7.4835742,224.50669 515.59462,-66.860989 1021.982,227.49224 Z"
     transform="matrix(0.85991237,0,0,0.85987413,63.478451,65.649997)" />
  <path
     style="display:inline;fill:#475ebf;fill-opacity:1"
     d="M 507.89043,509.98505 930.78335,759.02444 503.97077,1003.81 78.382916,756.59909 Z"
     id="path11" />
  <path
     style="display:inline;fill:#477cbf;fill-opacity:1"
     d="m 506.7771,19.410475 1.22357,490.354085 422.67244,249.37013 1.65333,-491.90935 z"
     id="path10" />
  <path
     d="m 844.80755,625.05246 c 0,0 -1.11891,-6.86453 -1.77305,-6.80256 l -124.56584,12.01816 c -9.91167,0.95709 -17.60968,8.86122 -18.30508,18.79312 l -3.42212,49.04681 -96.36966,6.87489 -6.55499,-44.45086 c -1.4597,-9.8872 -10.09418,-17.34042 -20.08848,-17.34042 H 442.25637 c -9.99094,0 -18.62529,7.45322 -20.08506,17.34042 l -6.55846,44.45086 -96.3696,-6.87489 -3.42212,-49.04681 c -0.6954,-9.93533 -8.39341,-17.83947 -18.30514,-18.79657 L 172.88823,618.2499 c -0.6438,-0.0619 -1.1154,6.80943 -1.75918,6.80943 l -0.1687,26.95565 105.54798,17.02021 3.45656,49.48403 c 0.69887,10.01797 8.78237,18.11846 18.80774,18.83794 l 132.72166,9.46717 c 0.50267,0.0344 0.99842,0.0551 1.49421,0.0551 9.97359,0 18.59427,-7.45674 20.05408,-17.3439 l 6.74427,-45.73842 h 96.41442 l 6.74437,45.73842 c 1.45624,9.88372 10.08725,17.34046 20.07467,17.34046 0.48891,0 0.97777,-0.0172 1.45629,-0.0516 l 132.73895,-9.4672 c 10.02178,-0.71948 18.10893,-8.81997 18.8078,-18.83794 l 3.45303,-49.48403 105.50327,-17.09594 z"
     fill="#ffffff"
     id="path1"
     style="display:inline;stroke:#ffffff;stroke-width:15;stroke-dasharray:none;stroke-opacity:1" />
  <path
     d="m 171.12742,421.79759 v 163.5719 20.77607 18.90674 c 0.37176,0.003 0.74357,0.0172 1.11197,0.0516 l 124.61402,12.01475 c 6.5274,0.62997 11.64342,5.88342 12.09785,12.42435 l 3.84214,55.00593 108.70152,7.75618 7.488,-50.76803 c 0.97087,-6.58235 6.61694,-11.4605 13.27524,-11.4605 h 131.47202 c 6.6549,0 12.30098,4.87815 13.27182,11.4605 l 7.48802,50.76803 108.70499,-7.75618 3.83866,-55.00593 c 0.45794,-6.54093 5.57035,-11.79094 12.09785,-12.42435 L 843.69736,625.1039 c 0.36834,-0.0344 0.7367,-0.0482 1.10857,-0.0517 v -16.21806 l 0.052,-0.0172 V 421.79759 c 17.54748,-22.08937 34.16331,-46.45522 46.89382,-66.95516 -19.45502,-33.11793 -43.29272,-62.71401 -68.7725,-90.13428 -23.6311,11.89414 -46.58393,25.36851 -68.26297,39.70694 -10.84809,-10.78225 -23.06649,-19.60214 -35.06793,-28.82144 -11.79144,-9.47062 -25.08047,-16.41442 -37.6844,-24.50448 3.75259,-27.94359 5.60826,-55.45345 6.35534,-84.16479 -32.52037,-16.36613 -67.19924,-27.21722 -102.27747,-35.01128 -14.00517,23.53711 -26.81221,49.02614 -37.96679,73.94371 -13.22704,-2.21014 -26.51602,-3.02955 -39.82233,-3.1879 v -0.0206 c -0.0929,0 -0.17903,0.0206 -0.25819,0.0206 -0.0832,0 -0.16868,-0.0206 -0.25134,-0.0206 v 0.0206 c -13.33034,0.15835 -26.60903,0.97776 -39.83956,3.1879 -11.14764,-24.91757 -23.9478,-50.4066 -37.97365,-73.94371 -35.06096,7.79406 -69.7433,18.64515 -102.26012,35.01128 0.74363,28.71134 2.59923,56.2212 6.36223,84.16479 -12.6281,8.09006 -25.89985,15.03386 -37.6948,24.50448 -11.98423,9.2193 -24.22321,18.03919 -35.07477,28.82144 -21.67904,-14.33843 -44.62497,-27.8128 -68.26295,-39.70694 -25.47987,27.42027 -49.30372,57.01635 -68.76562,90.13428 15.29499,24.00755 31.70079,48.13748 46.89382,66.95516 z"
     fill="#478cbf"
     id="path2"
     style="display:inline;stroke:#ffffff;stroke-width:15;stroke-dasharray:none;stroke-opacity:1" />
  <path
     d="m 733.01364,662.74107 -3.85934,55.29857 c -0.46477,6.66485 -5.76661,11.96986 -12.43177,12.44842 l -132.73543,9.4706 c -0.32369,0.0241 -0.64727,0.0344 -0.96748,0.0344 -6.59633,0 -12.28718,-4.84028 -13.2615,-11.46385 l -7.61196,-51.61837 H 453.8405 l -7.61191,51.61837 c -1.02243,6.94718 -7.23318,11.94238 -14.22887,11.42943 l -132.73546,-9.47062 c -6.66518,-0.47856 -11.96707,-5.78357 -12.43184,-12.44842 L 282.97308,662.74107 170.92175,651.9382 c 0.052,12.04217 0.20659,25.2343 0.20659,27.86096 0,118.33608 150.12135,175.21477 336.6361,175.86892 h 0.22721 0.23068 c 186.51476,-0.65415 336.58451,-57.53284 336.58451,-175.86892 0,-2.67487 0.16179,-15.8119 0.21683,-27.86096 z"
     fill="#478cbf"
     id="path3"
     style="display:inline;stroke:#ffffff;stroke-width:15;stroke-dasharray:none;stroke-opacity:1" />
  <path
     d="m 406.44098,504.30542 c 0,41.49028 -33.61854,75.1004 -75.09681,75.1004 -41.45768,0 -75.08655,-33.61012 -75.08655,-75.1004 0,-41.46269 33.62887,-75.05566 75.08655,-75.05566 41.47827,0 75.09681,33.59297 75.09681,75.05566"
     fill="#ffffff"
     id="path4"
     style="display:inline;stroke-width:3.4427" />
  <path
     d="m 388.37123,508.75967 c 0,27.52015 -22.30565,49.82473 -49.84764,49.82473 -27.52835,0 -49.84765,-22.30458 -49.84765,-49.82473 0,-27.52017 22.3193,-49.84553 49.84765,-49.84553 27.54199,0 49.84764,22.32536 49.84764,49.84553"
     fill="#414042"
     id="path5"
     style="display:inline;stroke-width:3.4427" />
  <path
     d="m 507.98694,586.23812 c -13.35098,0 -24.1716,-9.83905 -24.1716,-21.96734 v -69.13087 c 0,-12.11801 10.82062,-21.96728 24.1716,-21.96728 13.35109,0 24.19572,9.84927 24.19572,21.96728 v 69.13087 c 0,12.12829 -10.84463,21.96734 -24.19572,21.96734"
     fill="#ffffff"
     id="path6"
     style="display:inline;stroke-width:3.4427" />
  <path
     d="m 609.54553,504.30542 c 0,41.49028 33.61847,75.1004 75.10375,75.1004 41.45425,0 75.07959,-33.61012 75.07959,-75.1004 0,-41.46269 -33.62534,-75.05566 -75.07959,-75.05566 -41.48528,0 -75.10375,33.59297 -75.10375,75.05566"
     fill="#ffffff"
     id="path7"
     style="display:inline;stroke-width:3.4427" />
  <path
     d="m 627.61977,508.75967 c 0,27.52015 22.29883,49.82473 49.82019,49.82473 27.54897,0 49.84771,-22.30458 49.84771,-49.82473 0,-27.52017 -22.29874,-49.84553 -49.84771,-49.84553 -27.52136,0 -49.82019,22.32536 -49.82019,49.84553"
     fill="#414042"
     id="path8"
     style="display:inline;stroke-width:3.4427" />
</svg>
